<?xml version="1.0" standalone="no"?>
<!DOCTYPE svg PUBLIC "-//W3C//DTD SVG 20010904//EN"
 "http://www.w3.org/TR/2001/REC-SVG-20010904/DTD/svg10.dtd">
<svg version="1.0" xmlns="http://www.w3.org/2000/svg"
 width="257.000000pt" height="257.000000pt" viewBox="0 0 257.000000 257.000000"
 preserveAspectRatio="xMidYMid meet">
<metadata>
Created by potrace 1.14, written by Peter Selinger 2001-2017
</metadata>
<g transform="translate(0.000000,257.000000) scale(0.100000,-0.100000)"
fill="#000000" stroke="none">
<path d="M1113 2358 c9 -21 13 -38 10 -38 -3 0 0 -7 7 -15 7 -8 10 -22 6 -30
-3 -9 -2 -13 4 -10 6 3 10 -3 10 -14 0 -12 5 -21 12 -21 6 0 9 -3 5 -6 -3 -4
0 -21 8 -39 7 -19 11 -36 7 -39 -3 -3 0 -6 6 -6 7 0 11 -3 11 -7 -3 -17 14
-73 22 -73 5 0 9 -9 9 -20 0 -13 -7 -20 -20 -20 -11 0 -20 5 -20 10 0 6 -11
10 -24 10 -13 0 -29 7 -36 15 -7 8 -20 15 -29 15 -9 0 -23 6 -30 13 -11 10
-12 9 -6 -3 6 -10 1 -8 -13 4 -19 17 -22 17 -22 3 0 -9 9 -21 20 -27 11 -6 20
-17 20 -24 0 -8 15 -30 33 -48 18 -19 31 -40 29 -48 -3 -8 0 -10 8 -5 9 6 11
4 5 -4 -5 -9 -10 -10 -18 -2 -6 6 -26 11 -45 11 -18 0 -31 4 -28 8 3 5 -1 9
-9 9 -8 0 -15 -5 -15 -10 0 -5 -6 -5 -13 1 -7 6 -37 13 -65 14 -29 2 -52 6
-52 10 0 3 -11 5 -25 3 -14 -1 -25 1 -25 5 0 7 -31 11 -93 11 -9 0 -15 4 -13
8 3 4 -6 7 -18 7 -12 0 -23 -6 -23 -13 0 -6 4 -10 9 -7 4 3 8 0 8 -6 0 -6 4
-8 10 -5 5 3 20 -3 32 -14 12 -12 26 -21 31 -21 5 0 21 -9 37 -20 15 -11 30
-16 34 -13 4 4 4 -1 0 -10 -3 -10 -3 -17 2 -16 23 4 45 -2 39 -11 -3 -5 0 -7
8 -4 11 4 16 -6 19 -41 2 -26 0 -49 -4 -51 -5 -3 -4 -14 2 -24 7 -13 7 -21 0
-25 -8 -5 -8 -11 0 -20 8 -9 6 -14 -5 -19 -8 -3 -15 -1 -15 5 0 6 -7 9 -15 5
-12 -4 -15 4 -15 39 0 32 -4 45 -14 45 -15 0 -16 36 -1 60 6 9 4 11 -5 5 -9
-5 -10 -2 -6 11 3 11 2 25 -3 33 -10 16 -100 21 -120 6 -11 -7 -13 -7 -7 2 5
10 -5 12 -44 8 -27 -2 -55 -7 -62 -11 -6 -4 -8 -3 -5 3 4 6 -4 11 -18 11 -14
0 -22 -4 -19 -9 3 -5 -2 -6 -11 -2 -24 9 -33 -12 -30 -66 1 -25 -2 -49 -8 -53
-9 -6 -14 -26 -16 -72 -1 -14 -7 -17 -26 -14 -13 3 -26 0 -28 -6 -2 -6 -4 26
-3 72 0 48 5 82 11 82 5 0 4 4 -4 9 -13 8 -13 12 -1 28 8 10 11 15 6 11 -5 -4
-15 -1 -23 7 -16 17 -38 20 -28 6 3 -6 -6 -7 -22 -2 -34 9 -44 8 -62 -3 -10
-6 -12 -5 -7 2 4 7 1 12 -9 12 -10 0 -13 -5 -9 -12 5 -7 3 -8 -6 -3 -18 11
-80 13 -86 3 -3 -5 -10 -5 -17 -1 -15 9 -57 10 -51 1 3 -4 1 -8 -4 -8 -5 0 -9
-44 -8 -100 0 -55 -1 -100 -4 -101 -24 -5 -70 -3 -70 3 0 4 -8 0 -17 -9 -17
-17 -18 -66 -17 -751 0 -482 4 -736 11 -743 5 -5 48 -10 96 -11 52 -1 83 -6
80 -12 -4 -5 -1 -6 8 0 24 14 51 16 43 2 -6 -10 -4 -10 7 -2 15 12 47 13 66 1
6 -4 14 -3 17 2 7 11 55 11 62 0 3 -5 11 -6 17 -2 17 11 117 11 123 1 3 -5 10
-6 15 -3 19 12 49 13 49 2 0 -8 3 -8 8 -2 10 15 32 17 46 5 7 -5 15 -7 18 -5
12 12 48 13 48 2 0 -9 2 -9 8 -1 8 12 50 13 69 1 6 -4 14 -3 17 2 7 11 55 11
62 -1 3 -5 12 -4 20 3 8 6 17 9 21 6 3 -4 15 -2 26 4 14 8 17 8 13 0 -5 -7 7
-9 34 -6 30 3 39 1 33 -8 -5 -9 -3 -9 8 -1 20 15 61 16 52 1 -3 -7 4 -3 17 8
13 11 20 14 15 6 -6 -11 -4 -13 8 -8 10 4 17 1 17 -6 0 -7 3 -8 8 -2 11 15 64
17 55 2 -5 -9 -3 -9 8 -1 15 12 47 13 66 1 6 -4 14 -3 17 2 7 11 55 11 62 0 3
-5 11 -6 17 -2 17 11 117 11 123 1 3 -5 10 -6 15 -3 19 12 49 13 49 2 0 -8 3
-8 8 -2 10 15 32 17 46 5 7 -5 15 -7 18 -5 12 12 48 13 48 2 0 -9 2 -9 8 -1 8
12 50 13 69 1 6 -4 14 -3 17 2 7 11 55 11 62 -1 3 -5 12 -4 20 3 8 6 17 9 21
6 3 -4 15 -2 26 4 14 8 17 8 13 0 -5 -7 7 -9 34 -6 30 3 39 1 33 -8 -5 -9 -3
-9 8 -1 20 15 61 16 52 1 -3 -7 4 -3 17 8 13 11 20 14 15 6 -6 -11 -4 -13 8
-8 10 4 17 1 17 -6 0 -7 3 -8 8 -2 11 15 64 17 55 2 -5 -9 -3 -9 8 -1 15 12
47 13 66 1 6 -4 14 -3 18 2 7 13 48 10 57 -4 5 -7 8 -7 8 1 0 7 26 10 70 10
39 -1 70 2 70 5 0 3 12 4 26 1 19 -3 25 -1 20 7 -4 6 -3 11 2 11 4 0 8 168 7
377 0 208 3 386 8 397 5 10 5 16 0 13 -4 -3 -8 200 -7 451 0 252 -1 462 -3
467 -2 6 -30 10 -63 9 -37 0 -57 3 -53 9 4 6 1 7 -8 1 -18 -11 -41 -12 -56 -1
-6 4 -14 3 -18 -3 -5 -8 -11 -7 -23 2 -12 10 -14 10 -8 0 5 -9 -2 -11 -31 -6
-21 3 -41 8 -45 10 -4 2 -10 0 -13 -6 -5 -8 -12 -7 -23 2 -12 10 -14 10 -8 0
5 -9 -2 -11 -31 -6 -21 3 -41 8 -45 10 -4 2 -10 0 -13 -6 -5 -8 -12 -7 -23 2
-12 10 -14 10 -8 0 5 -9 -2 -11 -31 -6 -21 3 -41 8 -45 10 -4 2 -10 0 -13 -6
-5 -8 -12 -7 -23 2 -9 7 -13 8 -10 3 8 -13 -164 -14 -173 -1 -4 4 9 46 27 93
19 46 31 89 28 95 -4 7 -3 8 4 4 8 -5 12 2 12 18 0 14 5 26 10 26 6 0 9 3 9 8
-3 19 2 33 10 28 5 -4 7 3 4 14 -3 12 0 20 8 20 7 0 9 3 6 6 -3 4 -2 15 4 26
15 28 19 58 8 58 -5 0 -9 -3 -9 -7 -1 -5 -17 -26 -37 -48 -20 -22 -32 -33 -28
-25 4 8 -16 -9 -45 -37 -30 -29 -57 -53 -62 -53 -4 0 -8 -7 -8 -15 0 -8 -7
-15 -15 -15 -8 0 -15 -7 -15 -15 0 -8 -4 -14 -9 -13 -5 2 -21 -10 -35 -26 -15
-15 -29 -27 -31 -25 -8 9 -24 83 -19 91 3 4 1 8 -4 8 -5 0 -9 6 -10 13 -1 15
-10 52 -12 52 -1 0 -4 16 -7 35 -2 19 -8 41 -13 50 -4 8 -6 24 -4 35 3 19 2
19 -10 3 -7 -10 -17 -14 -22 -10 -4 4 -2 -2 6 -12 11 -15 11 -18 2 -12 -10 6
-13 3 -11 -10 2 -11 0 -25 -5 -33 -7 -10 -5 -12 5 -6 8 5 7 0 -4 -12 -9 -11
-15 -22 -12 -25 3 -3 -1 -23 -9 -46 -8 -22 -12 -43 -9 -46 3 -3 1 -12 -5 -19
-7 -8 -9 -17 -5 -21 4 -4 1 -11 -7 -16 -10 -6 -29 7 -69 48 -30 31 -58 56 -63
55 -7 -3 -12 12 -9 30 0 4 -3 7 -8 7 -12 0 -111 98 -111 110 0 5 -9 10 -21 10
-11 0 -18 4 -15 8 3 5 -8 22 -25 38 l-31 29 15 -37z"/>
</g>
</svg>
