<svg xmlns="http://www.w3.org/2000/svg" width="342.667" height="342.667" version="1.0" viewBox="0 0 257 257"><path d="M111.3 21.2c.9 2.1 1.3 3.8 1 3.8s0 .7.7 1.5 1 2.2.6 3c-.3.9-.2 1.3.4 1s1 .3 1 1.4c0 1.2.5 2.1 1.2 2.1.6 0 .9.3.5.6-.3.4 0 2.1.8 3.9.7 1.9 1.1 3.6.7 3.9-.3.3 0 .6.6.6.7 0 1.1.3 1.1.7-.3 1.7 1.4 7.3 2.2 7.3.5 0 .9.9.9 2 0 1.3-.7 2-2 2-1.1 0-2-.5-2-1 0-.6-1.1-1-2.4-1s-2.9-.7-3.6-1.5-2-1.5-2.9-1.5-2.3-.6-3-1.3c-1.1-1-1.2-.9-.6.3.6 1 .1.8-1.3-.4-1.9-1.7-2.2-1.7-2.2-.3 0 .9.9 2.1 2 2.7s2 1.7 2 2.4c0 .8 1.5 3 3.3 4.8 1.8 1.9 3.1 4 2.9 4.8-.3.8 0 1 .8.5.9-.6 1.1-.4.5.4-.5.9-1 1-1.8.2-.6-.6-2.6-1.1-4.5-1.1-1.8 0-3.1-.4-2.8-.8.3-.5-.1-.9-.9-.9s-1.5.5-1.5 1-.6.5-1.3-.1-3.7-1.3-6.5-1.4c-2.9-.2-5.2-.6-5.2-1 0-.3-1.1-.5-2.5-.3-1.4.1-2.5-.1-2.5-.5 0-.7-3.1-1.1-9.3-1.1-.9 0-1.5-.4-1.3-.8.3-.4-.6-.7-1.8-.7s-2.3.6-2.3 1.3c0 .6.4 1 .9.7.4-.3.8 0 .8.6s.4.8 1 .5c.5-.3 2 .3 3.2 1.4 1.2 1.2 2.6 2.1 3.1 2.1s2.1.9 3.7 2c1.5 1.1 3 1.6 3.4 1.3.4-.4.4.1 0 1-.3 1-.3 1.7.2 1.6 2.3-.4 4.5.2 3.9 1.1-.3.5 0 .7.8.4 1.1-.4 1.6.6 1.9 4.1.2 2.6 0 4.9-.4 5.1-.5.3-.4 1.4.2 2.4.7 1.3.7 2.1 0 2.5-.8.5-.8 1.1 0 2s.6 1.4-.5 1.9c-.8.3-1.5.1-1.5-.5s-.7-.9-1.5-.5c-1.2.4-1.5-.4-1.5-3.9 0-3.2-.4-4.5-1.4-4.5-1.5 0-1.6-3.6-.1-6 .6-.9.4-1.1-.5-.5-.9.5-1 .2-.6-1.1.3-1.1.2-2.5-.3-3.3-1-1.6-10-2.1-12-.6-1.1.7-1.3.7-.7-.2.5-1-.5-1.2-4.4-.8-2.7.2-5.5.7-6.2 1.1-.6.4-.8.3-.5-.3.4-.6-.4-1.1-1.8-1.1s-2.2.4-1.9.9-.2.6-1.1.2c-2.4-.9-3.3 1.2-3 6.6.1 2.5-.2 4.9-.8 5.3-.9.6-1.4 2.6-1.6 7.2-.1 1.4-.7 1.7-2.6 1.4-1.3-.3-2.6 0-2.8.6s-.4-2.6-.3-7.2c0-4.8.5-8.2 1.1-8.2.5 0 .4-.4-.4-.9-1.3-.8-1.3-1.2-.1-2.8.8-1 1.1-1.5.6-1.1s-1.5.1-2.3-.7c-1.6-1.7-3.8-2-2.8-.6.3.6-.6.7-2.2.2-3.4-.9-4.4-.8-6.2.3-1 .6-1.2.5-.7-.2.4-.7.1-1.2-.9-1.2s-1.3.5-.9 1.2c.5.7.3.8-.6.3-1.8-1.1-8-1.3-8.6-.3-.3.5-1 .5-1.7.1-1.5-.9-5.7-1-5.1-.1.3.4.1.8-.4.8s-.9 4.4-.8 10c0 5.5-.1 10-.4 10.1-2.4.5-7 .3-7-.3 0-.4-.8 0-1.7.9-1.7 1.7-1.8 6.6-1.7 75.1 0 48.2.4 73.6 1.1 74.3.5.5 4.8 1 9.6 1.1 5.2.1 8.3.6 8 1.2-.4.5-.1.6.8 0 2.4-1.4 5.1-1.6 4.3-.2-.6 1-.4 1 .7.2 1.5-1.2 4.7-1.3 6.6-.1.6.4 1.4.3 1.7-.2.7-1.1 5.5-1.1 6.2 0 .3.5 1.1.6 1.7.2 1.7-1.1 11.7-1.1 12.3-.1.3.5 1 .6 1.5.3 1.9-1.2 4.9-1.3 4.9-.2 0 .8.3.8.8.2 1-1.5 3.2-1.7 4.6-.5.7.5 1.5.7 1.8.5 1.2-1.2 4.8-1.3 4.8-.2 0 .9.2.9.8.1.8-1.2 5-1.3 6.9-.1.6.4 1.4.3 1.7-.2.7-1.1 5.5-1.1 6.2.1.3.5 1.2.4 2-.3.8-.6 1.7-.9 2.1-.6.3.4 1.5.2 2.6-.4 1.4-.8 1.7-.8 1.3 0-.5.7.7.9 3.4.6 3-.3 3.9-.1 3.3.8-.5.9-.3.9.8.1 2-1.5 6.1-1.6 5.2-.1-.3.7.4.3 1.7-.8s2-1.4 1.5-.6c-.6 1.1-.4 1.3.8.8 1-.4 1.7-.1 1.7.6s.3.8.8.2c1.1-1.5 6.4-1.7 5.5-.2-.5.9-.3.9.8.1 1.5-1.2 4.7-1.3 6.6-.1.6.4 1.4.3 1.7-.2.7-1.1 5.5-1.1 6.2 0 .3.5 1.1.6 1.7.2 1.7-1.1 11.7-1.1 12.3-.1.3.5 1 .6 1.5.3 1.9-1.2 4.9-1.3 4.9-.2 0 .8.3.8.8.2 1-1.5 3.2-1.7 4.6-.5.7.5 1.5.7 1.8.5 1.2-1.2 4.8-1.3 4.8-.2 0 .9.2.9.8.1.8-1.2 5-1.3 6.9-.1.6.4 1.4.3 1.7-.2.7-1.1 5.5-1.1 6.2.1.3.5 1.2.4 2-.3.8-.6 1.7-.9 2.1-.6.3.4 1.5.2 2.6-.4 1.4-.8 1.7-.8 1.3 0-.5.7.7.9 3.4.6 3-.3 3.9-.1 3.3.8-.5.9-.3.9.8.1 2-1.5 6.1-1.6 5.2-.1-.3.7.4.3 1.7-.8s2-1.4 1.5-.6c-.6 1.1-.4 1.3.8.8 1-.4 1.7-.1 1.7.6s.3.8.8.2c1.1-1.5 6.4-1.7 5.5-.2-.5.9-.3.9.8.1 1.5-1.2 4.7-1.3 6.6-.1.6.4 1.4.3 1.8-.2.7-1.3 4.8-1 5.7.4.5.7.8.7.8-.1 0-.7 2.6-1 7-1 3.9.1 7-.2 7-.5s1.2-.4 2.6-.1c1.9.3 2.5.1 2-.7-.4-.6-.3-1.1.2-1.1.4 0 .8-16.8.7-37.7 0-20.8.3-38.6.8-39.7.5-1 .5-1.6 0-1.3-.4.3-.8-20-.7-45.1 0-25.2-.1-46.2-.3-46.7-.2-.6-3-1-6.3-.9-3.7 0-5.7-.3-5.3-.9s.1-.7-.8-.1c-1.8 1.1-4.1 1.2-5.6.1-.6-.4-1.4-.3-1.8.3-.5.8-1.1.7-2.3-.2-1.2-1-1.4-1-.8 0 .5.9-.2 1.1-3.1.6-2.1-.3-4.1-.8-4.5-1s-1 0-1.3.6c-.5.8-1.2.7-2.3-.2-1.2-1-1.4-1-.8 0 .5.9-.2 1.1-3.1.6-2.1-.3-4.1-.8-4.5-1s-1 0-1.3.6c-.5.8-1.2.7-2.3-.2-1.2-1-1.4-1-.8 0 .5.9-.2 1.1-3.1.6-2.1-.3-4.1-.8-4.5-1s-1 0-1.3.6c-.5.8-1.2.7-2.3-.2-.9-.7-1.3-.8-1-.3.8 1.3-16.4 1.4-17.3.1-.4-.4.9-4.6 2.7-9.3 1.9-4.6 3.1-8.9 2.8-9.5-.4-.7-.3-.8.4-.4.8.5 1.2-.2 1.2-1.8 0-1.4.5-2.6 1-2.6.6 0 .9-.3.9-.8-.3-1.9.2-3.3 1-2.8.5.4.7-.3.4-1.4-.3-1.2 0-2 .8-2 .7 0 .9-.3.6-.6-.3-.4-.2-1.5.4-2.6 1.5-2.8 1.9-5.8.8-5.8-.5 0-.9.3-.9.7-.1.5-1.7 2.6-3.7 4.8s-3.2 3.3-2.8 2.5-1.6.9-4.5 3.7c-3 2.9-5.7 5.3-6.2 5.3-.4 0-.8.7-.8 1.5s-.7 1.5-1.5 1.5-1.5.7-1.5 1.5-.4 1.4-.9 1.3c-.5-.2-2.1 1-3.5 2.6-1.5 1.5-2.9 2.7-3.1 2.5-.8-.9-2.4-8.3-1.9-9.1.3-.4.1-.8-.4-.8s-.9-.6-1-1.3c-.1-1.5-1-5.2-1.2-5.2-.1 0-.4-1.6-.7-3.5-.2-1.9-.8-4.1-1.3-5-.4-.8-.6-2.4-.4-3.5.3-1.9.2-1.9-1-.3-.7 1-1.7 1.4-2.2 1-.4-.4-.2.2.6 1.2 1.1 1.5 1.1 1.8.2 1.2-1-.6-1.3-.3-1.1 1 .2 1.1 0 2.5-.5 3.3-.7 1-.5 1.2.5.6.8-.5.7 0-.4 1.2-.9 1.1-1.5 2.2-1.2 2.5s-.1 2.3-.9 4.6c-.8 2.2-1.2 4.3-.9 4.6s.1 1.2-.5 1.9c-.7.8-.9 1.7-.5 2.1s.1 1.1-.7 1.6c-1 .6-2.9-.7-6.9-4.8-3-3.1-5.8-5.6-6.3-5.5-.7.3-1.2-1.2-.9-3 0-.4-.3-.7-.8-.7-1.2 0-11.1-9.8-11.1-11 0-.5-.9-1-2.1-1-1.1 0-1.8-.4-1.5-.8.3-.5-.8-2.2-2.5-3.8l-3.1-2.9z"/></svg>